<svg xmlns="http://www.w3.org/2000/svg" viewBox="0 0 1500 500" role="img" aria-label="Doodle of Last Resort banner">
  <rect width="1500" height="500" fill="#173B2F"/>

  <!-- "the Leash" price line, ambient -->
  <polyline points="0,430 180,392 340,410 520,318 660,352 840,250 980,286 1120,196 1260,232 1500,120"
            fill="none" stroke="#D9A441" stroke-width="3" opacity="0.16"/>
  <circle cx="1120" cy="196" r="6" fill="#D9A441" opacity="0.25"/>

  <!-- biscuit dots -->
  <g fill="#D9A441" opacity="0.5">
    <circle cx="1042" cy="80" r="7"/>
    <circle cx="1090" cy="52" r="5"/>
    <circle cx="1420" cy="420" r="7"/>
    <circle cx="1465" cy="390" r="5"/>
  </g>

  <!-- wordmark block -->
  <text x="96" y="152" font-family="Georgia, 'Times New Roman', serif" font-size="21"
        letter-spacing="8" fill="#D9A441">THE FEDERAL TREAT RESERVE PRESENTS</text>
  <text x="92" y="232" font-family="Georgia, 'Times New Roman', serif" font-weight="bold"
        font-size="60" fill="#F0D5A7">DOODLE OF LAST RESORT</text>
  <text x="96" y="300" font-family="Georgia, 'Times New Roman', serif" font-style="italic"
        font-size="30" fill="#A9C0B0">The goodest boy in monetary policy.</text>

  <rect x="96" y="336" width="128" height="46" fill="#9F4038"/>
  <text x="160" y="367" font-family="Georgia, 'Times New Roman', serif" font-weight="bold"
        font-size="26" fill="#FBF3E4" text-anchor="middle">$DOLR</text>

  <text x="96" y="432" font-family="Georgia, 'Times New Roman', serif" font-size="18"
        letter-spacing="3" fill="#7E9587">UNOFFICIAL PARODY · NO AFFILIATION · NOT FINANCIAL ADVICE</text>

  <!-- Monty -->
  <g transform="translate(528 -242) scale(1.3)">
    <ellipse cx="428" cy="330" rx="52" ry="88" fill="#B0723C" transform="rotate(14 428 330)"/>
    <ellipse cx="652" cy="330" rx="52" ry="88" fill="#B0723C" transform="rotate(-14 652 330)"/>
    <circle cx="540" cy="330" r="118" fill="#C9874B"/>
    <circle cx="448" cy="262" r="24" fill="#C9874B"/>
    <circle cx="484" cy="238" r="27" fill="#C9874B"/>
    <circle cx="540" cy="228" r="30" fill="#C9874B"/>
    <circle cx="596" cy="238" r="27" fill="#C9874B"/>
    <circle cx="632" cy="262" r="24" fill="#C9874B"/>
    <ellipse cx="540" cy="384" rx="62" ry="46" fill="#F0D5A7"/>
    <ellipse cx="540" cy="366" rx="17" ry="13" fill="#15201C"/>
    <circle cx="498" cy="318" r="10" fill="#3B2A1A"/>
    <circle cx="582" cy="318" r="10" fill="#3B2A1A"/>
    <circle cx="501" cy="314" r="3.5" fill="#F6EBD8"/>
    <circle cx="585" cy="314" r="3.5" fill="#F6EBD8"/>
    <path d="M478 292 q22 -12 44 -2" stroke="#8A5A2B" stroke-width="8" fill="none" stroke-linecap="round"/>
    <path d="M558 288 q22 -6 44 8" stroke="#8A5A2B" stroke-width="8" fill="none" stroke-linecap="round"/>
    <path d="M512 398 q28 14 56 0" stroke="#5B3A22" stroke-width="8" fill="none" stroke-linecap="round"/>
    <path d="M420 262 a124 124 0 0 1 240 0 l-18 14 a106 106 0 0 0 -204 0 z" fill="#173B2F" stroke="#0F2A20" stroke-width="2"/>
    <path d="M404 268 q136 -46 272 0 l-8 22 q-128 -42 -256 0 z" fill="#1F5240"/>
    <path d="M400 560 q140 -120 280 0 z" fill="#0F2A20"/>
    <path d="M505 462 l35 30 35 -30 -10 98 h-50 z" fill="#FBF3E4"/>
    <path d="M540 492 l-16 22 16 46 16 -46 z" fill="#9F4038" transform="rotate(6 540 492)"/>
    <circle cx="545" cy="512" r="5" fill="#D9A441"/>
  </g>
</svg>
